<svg width="761" height="621" viewBox="0 0 761 621" fill="none" xmlns="http://www.w3.org/2000/svg">
<path d="M257.82 20.9419C239.945 -1.84434 259.938 -10.3849 272.169 -11.8069L760.999 -12.4658V620.846H14.8629H3.66217C-1.7943 620.846 0.714822 619.771 3.39648 618.622L3.66217 618.509C20.6432 611.217 21.9792 594.507 17.6271 588.317C0.645845 564.164 23.4495 539.573 38.8536 537.048C63.8783 532.947 60.4524 508.755 55.6114 497.172C33.2681 465.727 64.9211 440.777 83.5405 432.232C131.356 403.066 125.062 368.81 115.939 355.329C98.0639 331.631 123.386 311.275 138.282 304.06C194.141 266.235 186.134 228.296 175.149 214.055C137.164 172.584 177.569 156.14 202.52 153.102C265.975 147.177 242.366 117.973 222.629 104.111C194.476 79.5024 224.305 63.4761 242.738 58.5391C276.254 48.0575 266.757 29.107 257.82 20.9419Z" fill="#081F4B"/>
</svg>